<svg xmlns="http://www.w3.org/2000/svg" xmlns:xlink="http://www.w3.org/1999/xlink" width="771.743" height="360.842" viewBox="0 0 771.743 360.842"><defs><style>.a{fill:url(#a);}.b{fill:url(#b);}.c{fill:url(#c);}.d{fill:url(#d);}.e{fill:url(#e);}.f{fill:url(#f);}.ab,.ag,.aj,.al,.g,.l,.m,.p{fill:none;}.g{stroke:#1dceb4;stroke-width:0.965px;}.ab,.ag,.aj,.al,.g,.l,.p{stroke-linecap:round;}.ab,.g,.m{stroke-miterlimit:10;}.h{fill:url(#g);}.i{fill:url(#h);}.j{fill:url(#i);}.k{fill:url(#j);}.ag,.l,.p{stroke:#01004c;}.ag,.aj,.al,.l,.p{stroke-linejoin:round;}.aj,.m{stroke:#91b6e0;}.n{fill:#91b6e0;}.o{fill:#f98091;}.p{stroke-width:1.2px;}.q{fill:#d64949;}.r{fill:#e95f5c;}.s{fill:#fc7e7e;}.t{fill:#282766;}.ak,.ao,.ap,.aq,.u,.w,.x{opacity:0.5;}.aa,.ac,.ak,.am,.an,.ao,.ap,.aq,.ar,.as,.u,.w,.x{mix-blend-mode:overlay;isolation:isolate;}.u{fill:url(#k);}.v{fill:#fcd98e;}.w{fill:url(#l);}.x{fill:url(#m);}.y{fill:#01004c;}.z{fill:#ffadb7;}.aa,.am,.as{opacity:0.51;}.aa{fill:url(#n);}.ab,.al{stroke:#ef8998;stroke-width:0.5px;}.ac,.an,.ar{opacity:0.75;}.ac{fill:url(#o);}.ad{fill:#a9b2bf;}.ae{fill:#fff;}.af{fill:#c1c7d3;}.ag,.aj{stroke-width:2px;}.ah{fill:#62a5e7;}.ai{fill:#4091d3;}.ak{fill:url(#p);}.am{fill:url(#q);}.an{fill:url(#r);}.ao{fill:url(#s);}.ap{fill:url(#t);}.aq{fill:url(#v);}.ar{fill:url(#w);}.as{fill:url(#x);}</style><linearGradient id="a" x1="0.5" y1="1" x2="0.5" gradientUnits="objectBoundingBox"><stop offset="0" stop-color="#a3cae2"/><stop offset="0.382" stop-color="#cbe4f7"/></linearGradient><linearGradient id="b" x1="0.31" y1="1.031" x2="0.634" y2="-0.01" gradientUnits="objectBoundingBox"><stop offset="0" stop-color="#148275"/><stop offset="1" stop-color="#14bda4"/></linearGradient><linearGradient id="c" x1="1.033" y1="0.988" x2="0.144" y2="0.024" xlink:href="#b"/><linearGradient id="d" x1="-0.244" y1="0.718" x2="1.086" y2="0.205" xlink:href="#b"/><linearGradient id="e" x1="-0.264" y1="0.722" x2="1.133" y2="0.234" xlink:href="#b"/><linearGradient id="f" x1="0.708" y1="1.027" x2="0.364" y2="-0.007" xlink:href="#b"/><linearGradient id="g" x1="-0.229" y1="0.725" x2="1.063" y2="0.206" xlink:href="#b"/><linearGradient id="h" x1="1.112" y1="0.961" x2="0.182" y2="-0.003" xlink:href="#b"/><linearGradient id="i" x1="0.695" y1="1.028" x2="0.356" y2="-0.016" xlink:href="#b"/><linearGradient id="j" x1="0.338" y1="1.035" x2="0.649" y2="-0.009" xlink:href="#b"/><linearGradient id="k" y1="0.5" x2="1" y2="0.5" gradientUnits="objectBoundingBox"><stop offset="0.094" stop-opacity="0"/><stop offset="1"/></linearGradient><linearGradient id="l" x1="0.88" y1="0.665" x2="0.173" y2="0.391" gradientUnits="objectBoundingBox"><stop offset="0.232" stop-opacity="0"/><stop offset="1"/></linearGradient><linearGradient id="m" x1="0.5" y1="1" x2="0.5" y2="0" xlink:href="#l"/><radialGradient id="n" cx="0.5" cy="0.5" r="0.5" gradientTransform="translate(-0.158 -0.02) rotate(-2.722)" gradientUnits="objectBoundingBox"><stop offset="0"/><stop offset="1" stop-opacity="0"/></radialGradient><linearGradient id="o" x1="0.047" y1="0.179" x2="0.706" y2="0.594" gradientUnits="objectBoundingBox"><stop offset="0"/><stop offset="0.791" stop-opacity="0"/></linearGradient><linearGradient id="p" x1="0.864" y1="1" x2="0.277" y2="-0.45" gradientUnits="objectBoundingBox"><stop offset="0.236" stop-opacity="0"/><stop offset="1"/></linearGradient><radialGradient id="q" cx="0.5" cy="0.5" r="0.5" gradientTransform="matrix(0.999, -0.054, 0.054, 0.999, -0.009, -0.022)" xlink:href="#n"/><linearGradient id="r" x1="0.266" y1="0.597" x2="0.878" y2="0.214" gradientUnits="objectBoundingBox"><stop offset="0.209" stop-opacity="0"/><stop offset="1"/></linearGradient><linearGradient id="s" x1="1" y1="0.5" x2="0" y2="0.5" xlink:href="#p"/><linearGradient id="t" x1="0.3" y1="0.856" x2="0.714" y2="0.182" xlink:href="#k"/><linearGradient id="v" x1="0.5" y1="1" x2="0.5" gradientUnits="objectBoundingBox"><stop offset="0.094" stop-opacity="0"/><stop offset="0.776"/></linearGradient><linearGradient id="w" x1="0.031" y1="0.197" x2="0.594" y2="0.585" xlink:href="#o"/><radialGradient id="x" cx="0.5" cy="0.5" r="0.5" gradientTransform="matrix(0.999, -0.047, 0.048, 0.999, -0.078, -0.006)" xlink:href="#n"/></defs><g transform="translate(-48.571 -105.956)"><path class="a" d="M73.425,454.437h718.4s27.026-27.448,27.026-69.285-27.789-44.508-44.891-70.351-14.776-56.074-60.981-69.053S650.342,272.6,610.919,266.274s-36.368-28.014-102.941-28.163-85.433-60.633-143.222-59.7c-75.538,1.222-70.384,58.353-125.962,68.622-41.469,7.662-94.827-38.853-138.5-4.877S86.251,308.5,70.066,346.37,38.918,413.786,73.425,454.437Z" transform="translate(0.462 11.36)"/><g transform="translate(298.139 163.439)"><path class="b" d="M302.116,233.931c7.065-18.316,15.615-25.8,27.22-34.653s23.972-31.607,12.216-40.768-29.622,5.039-35.272,25.346S302.116,233.931,302.116,233.931Z" transform="translate(-258.292 -155.668)"/><path class="c" d="M308.377,319.554c-1.477-25.454-13.679-74.633-34.35-67.107-15.575,5.67-6.368,26.159,7.558,38.707A242.116,242.116,0,0,1,308.377,319.554Z" transform="translate(-263.982 -140.51)"/><path class="d" d="M302.874,337.535c1.121-16.707,4.508-52.4,19.6-68.621,12.215-13.132,32.816-13.929,32.828,2.6.009,12.935-19.087,19.464-31.607,31.415C309.251,316.711,302.874,337.535,302.874,337.535Z" transform="translate(-258.145 -139.341)"/><path class="e" d="M300.768,293.876c-.4-18.215,11.909-35.055,24.642-42.15,19.086-10.633,32.217-27.038,23.513-38.655s-30.091,7.618-39.851,29.914S300.768,293.876,300.768,293.876Z" transform="translate(-258.489 -147.157)"/><path class="f" d="M305.082,263.051c.279-21.826-.871-55.724-11.824-68.549s-25.459-10.383-28.665,1.374,16.523,23.813,25.652,35.882C298.948,243.264,305.082,263.051,305.082,263.051Z" transform="translate(-264.244 -150.893)"/><g transform="translate(13.633 12.767)"><path class="g" d="M298.743,456.286c2.557-29.486,7.664-100.626,2.7-151.714-6.414-65.962,4.122-103.676,30.08-137.878" transform="translate(-272.43 -166.694)"/><path class="g" d="M276.018,262.952s25.794,27.491,30.762,54.822" transform="translate(-276.018 -151.496)"/><path class="g" d="M302.874,335.59c1.579-16.847,13.947-49.84,35.323-64.193" transform="translate(-271.778 -150.162)"/><path class="g" d="M300.762,291.569c-.551-23.1,7.541-53.791,35.178-67.381" transform="translate(-272.115 -157.616)"/><path class="g" d="M276.018,196.628c11.452,9.619,26.563,40.746,27.2,64.732" transform="translate(-276.018 -161.968)"/></g></g><g transform="translate(513.316 218.168)"><path class="h" d="M488.942,321.68c2.726-22.858,16.417-66.507,34.631-58.592,13.724,5.963,4.306,23.922-8.932,34.467A218.479,218.479,0,0,0,488.942,321.68Z" transform="translate(-443.944 -193.587)"/><path class="i" d="M493.727,338.392c-.095-15.117-1.19-47.469-13.9-62.913-10.288-12.5-28.808-14.35-29.725.541-.717,11.655,16.133,18.586,26.761,30.043C489.122,319.277,493.727,338.392,493.727,338.392Z" transform="translate(-450.08 -193.061)"/><path class="j" d="M497.833,299.174c1.357-16.393-8.81-32.244-19.9-39.335-16.617-10.628-27.551-26.13-19.072-36.123s26.7,8.514,34.274,29.142S497.833,299.174,497.833,299.174Z" transform="translate(-449.157 -200.094)"/><path class="k" d="M494.875,270.948c.945-19.684,3.838-50.168,14.412-61.126s23.511-7.962,25.756,2.809-16.2,20.554-25.082,30.93C501.487,253.454,494.875,270.948,494.875,270.948Z" transform="translate(-443.007 -202.935)"/><g transform="translate(15.333 11.17)"><path class="g" d="M486.867,441.289c-.628-18.417-2.55-93.522,5.639-145.034a316.606,316.606,0,0,0,3.738-34.582" transform="translate(-459.707 -204.831)"/><path class="g" d="M519.667,272.35s-24.751,23.36-30.725,47.718" transform="translate(-459.277 -203.145)"/><path class="g" d="M491.636,336.6c-.5-15.268-9.837-45.679-28.314-59.784" transform="translate(-463.322 -202.44)"/><path class="g" d="M495.937,297.047c1.762-20.789-3.848-48.888-28.008-62.649" transform="translate(-462.595 -209.137)"/><path class="g" d="M522.938,212.582c-10.846,8.042-26.171,35.264-28.063,56.843" transform="translate(-458.34 -212.582)"/></g></g><g transform="translate(566.571 157.235)"><g transform="translate(34.819 0)"><path class="l" d="M63.553,47.494H0V0H141.769V47.494H74.336V58.683Z"/><g transform="translate(96.173 2.643)"><circle class="m" cx="16.129" cy="16.129" r="16.129" transform="translate(0 29.759) rotate(-67.297)"/><circle class="n" cx="4.797" cy="4.797" r="4.797" transform="translate(16.307 11.473)"/><path class="n" d="M628.793,172.246a10,10,0,0,0-10,10,10.1,10.1,0,0,0,.053,1.031,16.069,16.069,0,0,0,19.893,0c.034-.339.052-.682.052-1.031A10,10,0,0,0,628.793,172.246Z" transform="translate(-607.688 -149.49)"/></g><rect class="n" width="79.318" height="4.464" transform="translate(12.141 10.703)"/><g transform="translate(12.141 24.65)"><path class="o" d="M542.364,180.644l-3.544,1.863.677-3.947-2.867-2.8,3.963-.576,1.772-3.591,1.772,3.591,3.963.576-2.867,2.8.677,3.947Z" transform="translate(-536.629 -171.599)"/><path class="o" d="M557.013,180.644l-3.544,1.863.677-3.947-2.868-2.8,3.963-.576,1.772-3.591,1.772,3.591,3.963.576-2.868,2.8.677,3.947Z" transform="translate(-534.316 -171.599)"/><path class="o" d="M571.662,180.644l-3.544,1.863.677-3.947-2.867-2.8,3.963-.576,1.772-3.591,1.772,3.591,3.963.576-2.868,2.8.677,3.947Z" transform="translate(-532.003 -171.599)"/><path class="o" d="M586.311,180.644l-3.544,1.863.677-3.947-2.867-2.8,3.963-.576,1.772-3.591,1.772,3.591,3.963.576-2.868,2.8.677,3.947Z" transform="translate(-529.69 -171.599)"/></g></g><g transform="translate(28.897 58.86)"><g transform="translate(60.688 48.786)"><g transform="translate(3.413 99.649)"><line class="p" y2="96.278" transform="translate(0 4.989)"/><line class="p" y2="96.278" transform="translate(48.093 4.989)"/><line class="p" y2="101.268" transform="translate(92.167)"/></g><path class="q" d="M648.557,350.018H610.628v-4.2h37.929a18.992,18.992,0,0,0,18.434-14.428c4.157-16.64,8.727-49.676,7.917-88.021l4.2-.088c.818,38.758-3.821,72.236-8.043,89.126A23.187,23.187,0,0,1,648.557,350.018Z" transform="translate(-567.571 -243.278)"/><path class="r" d="M606.2,345.8h43.056a18.992,18.992,0,0,0,18.434-14.428c4.157-16.64,8.727-49.676,7.917-88.021H632.549c.811,38.345-3.76,71.381-7.916,88.021A18.99,18.99,0,0,1,606.2,345.8Z" transform="translate(-568.27 -243.266)"/><rect class="s" width="43.057" height="4.204" transform="translate(0 102.537)"/></g><g transform="translate(0 124.596)"><path class="t" d="M620.23,308.751c-33.817,8.335-71.758,35.3-85.375,91.2l8.315,3.327s25-46.671,64.088-57.482,39.3-24.567,39.3-24.567l-1.386-12.473Z" transform="translate(-518.847 -308.751)"/><path class="o" d="M542.319,400.269l-21.29-11.026,16.008-1.732,8.316,3.326Z" transform="translate(-521.03 -296.316)"/><path class="u" d="M613.436,308.751a110.928,110.928,0,0,0-34.85,15.4c-.677,5.234-1.8,18.435,1.9,30.675a75.109,75.109,0,0,1,19.977-9.038c39.083-10.81,39.3-24.567,39.3-24.567l-1.386-12.473Z" transform="translate(-512.053 -308.751)"/></g><g transform="translate(70.326 124.596)"><path class="o" d="M607.184,409.674l-23.133,6.3L594.66,403.86l8.372-3.182Z" transform="translate(-581.405 -294.237)"/><path class="t" d="M625.019,308.751c-24.115,10.533-43.8,29.129-43.241,58.5a115.518,115.518,0,0,0,13.243,51.124l8.373-3.182s-6.491-27.8-.947-45.276,19.512-34.942,34.2-34.2,18.4-10.565,21.818-25.855Z" transform="translate(-581.766 -308.751)"/></g><g transform="translate(57.587 44.265)"><path class="v" d="M614.56,319.705s24.763,5.173,45.644,1.108c0,0,6.468-30.307,0-56.177s-24.947-34.741-40.1-12.936-30.676,35.851-49.34,41.579v8.316s32.708-6.652,52.481-23.1C623.245,278.5,622.876,305.66,614.56,319.705Z" transform="translate(-570.764 -239.374)"/><path class="w" d="M639.765,257.433l-23.378,20.588v.006a142.338,142.338,0,0,1-2.686,22.015C629.923,300.2,649.566,285.76,639.765,257.433Z" transform="translate(-563.985 -236.522)"/><path class="x" d="M590.094,290.988s27.106-23.366,34.8-35.5c0,0,1,19.928-9.32,28.021S590.094,290.988,590.094,290.988Z" transform="translate(-567.712 -236.83)"/><path class="v" d="M639.548,240.663c13.012,2.5,8.578,23.792-2.7,38.946S602.3,304.371,579.382,304v-8.5s25.6-3.7,36.178-18.109S627.655,238.383,639.548,240.663Z" transform="translate(-569.403 -239.193)"/></g><g transform="translate(100.956)"><path class="y" d="M633.572,242.278c4.594-2.605,6.258-7.318,5.288-10.645,0,0,9.979-4.711,5.683-13.027s-.139-13.029-7.485-15.662a19.261,19.261,0,0,0-13.305,0s-11.021-6.1-14.865,4.158,10.152,14.609,10.152,14.609Z" transform="translate(-608.22 -201.145)"/><path class="z" d="M632.242,227.721c3.141-3.327,5.082-9.517.277-9.793s-3.141,5.081-5.173,6.1-1.244-5.145-5.913-7.669a9.576,9.576,0,0,0-6.375-1.109s-.555,7.392-2.957,11.352a3.832,3.832,0,0,0,2.772,1.029s-.831,11.088,10.533,10.626l.831,6.273s2.4,1.3,7.023-.729c0,0-.462-5.082-.462-7.115s-3.7-5.635-.555-8.962" transform="translate(-607.607 -198.941)"/><path class="aa" d="M624.549,228.331a3.877,3.877,0,1,0-3.688,4.056A3.877,3.877,0,0,0,624.549,228.331Z" transform="translate(-606.865 -197.436)"/><path class="ab" d="M615.964,221.138a2.35,2.35,0,0,1,2.977.17" transform="translate(-606.997 -198.058)"/><g transform="translate(23.154 20.524)"><path class="ab" d="M628.216,219.452a1.466,1.466,0,0,1,1.408-.582q.127,0,.26.007c1.077.063,1.245.489,1.319.672a4.137,4.137,0,0,1-.235,2.589" transform="translate(-628.216 -218.87)"/><path class="ab" d="M630.786,219.167a7.217,7.217,0,0,0-1.378,1.29" transform="translate(-628.028 -218.823)"/></g><path class="ac" d="M624.077,238.933a6.533,6.533,0,0,0,3.857-4.834,14.488,14.488,0,0,1-4.344,1.156Z" transform="translate(-605.793 -195.942)"/></g></g><g transform="translate(29.697 121.781)"><path class="ad" d="M0,0H64.309a0,0,0,0,1,0,0V3.7a0,0,0,0,1,0,0H1.442A1.442,1.442,0,0,1,0,2.256V0A0,0,0,0,1,0,0Z" transform="translate(11.697 47.122)"/><path class="ae" d="M559.592,302.609H594.91l-11.851-45.444a2.245,2.245,0,0,0-2.173-1.679H559.592Z" transform="translate(-515.741 -255.486)"/><path class="ae" d="M627.461,299.88h-40.1v-3.7h40.1a1.848,1.848,0,0,1,1.849,1.848h0A1.849,1.849,0,0,1,627.461,299.88Z" transform="translate(-511.357 -249.06)"/><path class="af" d="M585.438,255.486h-61.7a2.017,2.017,0,0,0-1.952,2.527l11.63,44.6h64.309Z" transform="translate(-521.721 -255.486)"/></g><g transform="translate(0 172.601)"><line class="ag" y2="133.213" transform="translate(19.219 2.748)"/><line class="ag" y2="133.213" transform="translate(175.925 2.748)"/><line class="ag" y2="133.213" transform="translate(231.733 2.748)"/><rect class="ah" width="192.926" height="5.496"/><rect class="ai" width="47.307" height="5.496" transform="translate(192.926)"/></g></g><line class="aj" x2="769.743" transform="translate(49.571 465.797)"/><g transform="translate(96.449 152.913)"><g transform="translate(0 188.435)"><path class="ah" d="M203.778,432.987c52.294,2.516,122.2-25.2,122.47-60.463s-20.276-46.679-52.748-50.739-64.184,0-85.748-4.566-78.137-23.34-94.373,20.549S121.412,429.023,203.778,432.987Z" transform="translate(-90.056 -309.317)"/><path class="l" d="M131.926,332.291c20.8,10.4,57.588,8.372,88.285,0s55.692,5.074,55.692,5.074" transform="translate(-83.446 -306.123)"/></g><g transform="translate(9.169)"><path class="l" d="M63.553,47.494H0V0H141.769V47.494H74.336V58.683Z"/><g transform="translate(94.474 0.943)"><circle class="m" cx="16.129" cy="16.129" r="16.129" transform="translate(0 23.329) rotate(-46.32)"/><circle class="n" cx="4.797" cy="4.797" r="4.797" transform="translate(18.007 13.172)"/><path class="n" d="M200.623,168.513a10,10,0,0,0-10,10,10.1,10.1,0,0,0,.053,1.031,16.067,16.067,0,0,0,19.891,0,10,10,0,0,0-9.946-11.029Z" transform="translate(-177.82 -144.057)"/></g><rect class="n" width="79.318" height="4.464" transform="translate(12.141 10.703)"/><path class="o" d="M114.2,176.911l-3.544,1.863.677-3.947-2.868-2.8,3.963-.576,1.772-3.591,1.772,3.591,3.963.576-2.868,2.8.677,3.947Z" transform="translate(-96.319 -143.216)"/><path class="o" d="M128.845,176.911l-3.545,1.863.677-3.947-2.868-2.8,3.963-.576,1.772-3.591,1.772,3.591,3.963.576-2.868,2.8.677,3.947Z" transform="translate(-94.006 -143.216)"/><path class="o" d="M143.494,176.911l-3.544,1.863.677-3.947-2.868-2.8,3.963-.576,1.772-3.591,1.772,3.591,3.963.576-2.868,2.8.677,3.947Z" transform="translate(-91.693 -143.216)"/><path class="o" d="M158.143,176.911l-3.544,1.863.677-3.947-2.868-2.8,3.963-.576,1.772-3.591,1.772,3.591,3.963.576-2.868,2.8.677,3.947Z" transform="translate(-89.38 -143.216)"/><path class="o" d="M172.792,176.911l-3.545,1.863.677-3.947-2.868-2.8,3.963-.576,1.772-3.591,1.772,3.591,3.963.576-2.868,2.8.677,3.947Z" transform="translate(-87.068 -143.216)"/></g><g transform="translate(68.112 78.2)"><g transform="translate(23.232 107.799)"><path class="r" d="M168.945,307.213H203.3s40.158,1.985,58.48,21.834,38,71.047,38,71.047l-8.021,4.791s-24.713-42.4-62.274-62.1-55.961-23.209-55.961-23.209Z" transform="translate(-168.945 -307.213)"/><path class="y" d="M275.013,392.221l3.946,8.088,21.584-12.727-17.509-.153Z" transform="translate(-152.198 -294.548)"/><path class="ak" d="M242.546,350.818c8.043-9.543,9.325-23.42,9.45-29.89a60.62,60.62,0,0,0-5.725-3.481L182.857,318.5l.692,3.09c9.254,3.229,23.8,9.125,43.74,19.583A118.247,118.247,0,0,1,242.546,350.818Z" transform="translate(-166.748 -305.597)"/></g><path class="y" d="M159.179,277.1c-4.39-11.157-4.466-25.537,9.62-34.012s15.348-28.9,34.213-28.973c18.563-.069,18.006,21.186,15.028,32.179s-.916,23.362-.916,33.668-13.627,25.652-32.752,19.01S161.928,284.084,159.179,277.1Z" transform="translate(-147.666 -214.114)"/><g transform="translate(13.318 107.799)"><path class="r" d="M160.83,307.213s-4.581,18.934,15.575,30.233,40.31,16.491,52.83,39.088a177.282,177.282,0,0,1,17.1,45.807l9.161-1.833s-1.222-38.172-11.909-63.824-54.053-49.471-54.053-49.471Z" transform="translate(-160.383 -307.213)"/><path class="y" d="M234.615,406.891l1.013,8.942,24.6-4.773-16.449-6Z" transform="translate(-148.662 -291.764)"/></g><path class="z" d="M215.282,275.122h0l-10.618-2.557-3.261,10.5h0c5.849,12.049,20.211,34.9,47.616,42.526l2.6-5.726S225.159,302.851,215.282,275.122Z" transform="translate(-140.588 -204.885)"/><path class="v" d="M219.889,273.151c-6.794-27.713-32.9-33.057-49.547-24.507-14.252,7.323-9.467,68.4-9.467,68.4s27.942,4.733,43.822,0a264.59,264.59,0,0,1,0-37.256,68.417,68.417,0,0,0,3.229,7.633l13.878-7.938A64.974,64.974,0,0,1,219.889,273.151Z" transform="translate(-147.109 -209.25)"/><path class="z" d="M178.814,245.188c2.96,4.417,12.1,15.37,25.549,7.064A34.025,34.025,0,0,0,178.814,245.188Z" transform="translate(-144.154 -209.249)"/><g transform="translate(43.502 11.091)"><path class="z" d="M186.793,248.6s2.443,2.747,8.207,2.194l1.49-6.7s8.092,2.939,11.985-4.7a14.572,14.572,0,0,0,.038-13.8s-8.97-4.065-11.031-.324-2.214,5.222-3.283,4.733c-1.651-.754.457-5.191-4.2-5.114s-4.885,8.856.229,9.924Z" transform="translate(-186.45 -223.692)"/><path class="al" d="M202,231.021a6.617,6.617,0,0,0,1.5,4.159,4.356,4.356,0,0,1-2.8.3" transform="translate(-184.2 -222.535)"/><path class="ab" d="M203.6,230.583a3.97,3.97,0,0,1,3.112.455" transform="translate(-183.743 -222.626)"/><path class="ab" d="M196.482,229.566a3.914,3.914,0,0,1,3.833.551" transform="translate(-184.867 -222.808)"/><path class="am" d="M200.109,236.483a4.033,4.033,0,1,0-3.807,4.246A4.033,4.033,0,0,0,200.109,236.483Z" transform="translate(-185.566 -222.275)"/><g transform="translate(1.389 2.59)"><path class="ab" d="M187.657,229.412a5.429,5.429,0,0,1,.017-.777c.042-.446.346-2.676,2.161-2.706h0a2.332,2.332,0,0,1,1.391.292" transform="translate(-187.65 -225.929)"/><line class="ab" x2="1.163" y2="2.04" transform="translate(1.132 0.341)"/></g><path class="an" d="M195.012,245.385h0l.838-3.771c-4.313-1.3-5.345-2.214-5.345-2.214S190.394,243.009,195.012,245.385Z" transform="translate(-185.81 -221.212)"/></g><path class="ao" d="M177.059,265.806s-11.017,2.01-16.362,8.661a284.467,284.467,0,0,0-.107,34.8c7.341,7.558,19.065,5.854,19.065,5.854C169.883,303.215,177.059,265.806,177.059,265.806Z" transform="translate(-147.109 -205.952)"/><g transform="translate(0 39.394)"><path class="z" d="M188.826,312.343c5.685-2.323,13.811,1.857,14.212,5.923H189.015Z" transform="translate(-142.574 -238.104)"/><path class="z" d="M195.133,319.059s-28.212-8.735-28.47-28.892a37.63,37.63,0,0,1,1.19-10.42h0l-4.71-8.932-11.46-1.673h0a52.982,52.982,0,0,0-2.779,15.377c-.61,16.642,10.459,40.462,46.418,40.462Z" transform="translate(-148.881 -244.819)"/><path class="v" d="M167.471,283.064A23.613,23.613,0,0,1,178.449,268.6l-6.718-20.46a44.014,44.014,0,0,0-20.43,24.323Z" transform="translate(-148.498 -248.136)"/></g><g transform="translate(22.972 81.651)"><path class="ae" d="M205.059,319.657H169.865a1.145,1.145,0,0,1-1.145-1.145h0a1.145,1.145,0,0,1,1.145-1.145h35.194Z" transform="translate(-168.72 -279.462)"/><path class="ad" d="M0,0H55.273a0,0,0,0,1,0,0V1.348a.942.942,0,0,1-.942.942H0a0,0,0,0,1,0,0V0A0,0,0,0,1,0,0Z" transform="translate(36.339 37.905)"/><path class="ae" d="M223.855,284.631h-12.49a1.263,1.263,0,0,0-1.205.886L198.6,322.536h25.252Z" transform="translate(-164.002 -284.631)"/><path class="af" d="M200.1,322.536h55.273L266.658,286.4a1.361,1.361,0,0,0-1.3-1.768h-53.42Z" transform="translate(-163.765 -284.631)"/></g></g></g><g transform="translate(379.359 106.456)"><g transform="translate(24.595 127.93)"><g transform="translate(3.652 94.639)"><line class="p" y2="128.833" transform="translate(54.454 7.94)"/><line class="p" y2="136.504" transform="translate(84.035)"/><line class="p" y2="128.833" transform="translate(0 7.94)"/><line class="p" x2="84.035" transform="translate(0 58.022)"/></g><path class="q" d="M396.787,322.025l-.015-4.632c22.677-.073,34.989-2.884,41.169-9.4,3.874-4.083,5.488-9.828,5.08-18.079-1.093-22.139-1.365-50.44,6.3-72.975l4.386,1.493c-7.419,21.793-7.138,49.526-6.064,71.254.469,9.469-1.607,16.5-6.345,21.5C434.165,318.7,420.853,321.948,396.787,322.025Z" transform="translate(-349.134 -216.941)"/><path class="s" d="M355.63,303.7h47.638l.016,4.632H355.645Z" transform="translate(-355.63 -203.243)"/><path class="r" d="M408.183,216.941c-7.67,22.535-7.4,50.836-6.3,72.975.409,8.251-1.205,14-5.08,18.079-6.181,6.514-18.492,9.326-41.169,9.4h47.638c22.677-.073,34.989-2.884,41.169-9.4,3.874-4.083,5.488-9.828,5.08-18.079-1.093-22.139-1.365-50.44,6.3-72.975Z" transform="translate(-355.63 -216.941)"/></g><g transform="translate(11.462)"><path class="l" d="M39.99,47.495H0V0H141.769V47.495h-91V58.684Z"/><g transform="translate(94.467 0.937)"><circle class="m" cx="16.129" cy="16.129" r="16.129" transform="translate(0 22.81) rotate(-45)"/><circle class="n" cx="4.797" cy="4.797" r="4.797" transform="translate(18.013 13.178)"/><path class="n" d="M446.936,128.391a10.009,10.009,0,0,0-9.946,11.029,16.069,16.069,0,0,0,19.893,0,10.1,10.1,0,0,0,.052-1.031A10,10,0,0,0,446.936,128.391Z" transform="translate(-424.126 -103.93)"/></g><rect class="n" width="79.318" height="4.464" transform="translate(12.141 10.703)"/><g transform="translate(12.141 24.65)"><path class="o" d="M360.508,136.79l-3.544,1.863.677-3.947-2.868-2.8,3.963-.576,1.772-3.591,1.772,3.591,3.963.576-2.868,2.8.677,3.947Z" transform="translate(-354.773 -127.744)"/><path class="o" d="M375.157,136.79l-3.544,1.863.677-3.947-2.868-2.8,3.963-.576,1.772-3.591,1.772,3.591,3.963.576-2.868,2.8.677,3.947Z" transform="translate(-352.46 -127.744)"/><path class="o" d="M389.806,136.79l-3.544,1.863.677-3.947-2.868-2.8,3.963-.576,1.772-3.591,1.772,3.591,3.963.576-2.868,2.8.677,3.947Z" transform="translate(-350.147 -127.744)"/></g></g><g transform="translate(0 68.971)"><g transform="translate(24.897 75.742)"><path class="z" d="M397.2,232.336l-8.6-.9h0a80.155,80.155,0,0,1-7.434,12.505c-14.658,19.85-25.291,34.228-25.28,53.283l9.019-4.46s-1.222-7.787,4.123-12.367c5.047-4.326,18.329-16.625,30.47-38.557Z" transform="translate(-355.891 -231.435)"/><path class="ap" d="M375.31,269.861c2.3-2.4,4.877-5.281,7.621-8.68-3.028-2.687-8.645-6.861-10.881-9.938-2.4,3.367-4.617,6.61-6.615,9.795C366.78,263.92,371.084,267.4,375.31,269.861Z" transform="translate(-354.384 -228.308)"/></g><g transform="translate(0 126.343)"><path class="t" d="M404.35,275.136c-10.536.459-48.555.229-61.381,38.249s4.237,70.7,4.237,70.7l9.015-1.417s-9.13-35.842-.426-53.936,22.674-24.335,43.745-23.018Z" transform="translate(-333.788 -275.136)"/><path class="o" d="M347.646,369.446,334.389,381.4l24.715-5.381L356.822,368Z" transform="translate(-334.389 -260.473)"/><path class="u" d="M360.029,285.838c1.114,6.8,3.809,17.722,7.942,24.982,7.511-4.333,16.787-5.816,28.122-5.107l4.81-30.576C394.059,275.434,375.627,275.453,360.029,285.838Z" transform="translate(-330.34 -275.136)"/></g><g transform="translate(31.779 126.343)"><path class="o" d="M372.751,381.9l-10.917,14.124,23.362-9.7-3.672-7.482Z" transform="translate(-361.834 -258.76)"/><path class="t" d="M400.536,275.136s-30.615,21.148-36.723,60.236,8.857,62.908,8.857,62.908l8.772-3.055s-6.571-36.028,3.049-59.848,26.809-29.78,39.635-30.238,17.712-14.048,15.88-28.705Z" transform="translate(-361.753 -275.136)"/></g><g transform="translate(57.611 43.312)"><path class="ah" d="M438.55,289.131s1.526-43.822-2.749-60.618-8.4-25.8-26.415-25.041c-14.329.607-17.269,16.088-25.242,32.385l10.9,10.4c.714-1.29,1.4-2.587,2.053-3.892,0,0-3.321,30.343-9.419,44.615C387.676,286.984,418.394,292.184,438.55,289.131Z" transform="translate(-384.144 -203.427)"/><path class="aq" d="M432.794,227.177a55.161,55.161,0,0,0-6.121-15.291l-11.754,5.853c11,15.087-4.009,46.4-11.733,52.543,0,0,14.552,8.64,32.619-1.139C435.783,255.124,435.233,236.757,432.794,227.177Z" transform="translate(-381.137 -202.092)"/></g><g transform="translate(40.607 47.331)"><rect class="ae" width="12.597" height="21.237" rx="1.83" transform="translate(0 32.824)"/><path class="z" d="M373.11,259.645c-2.2-4.046-3.418-10.154.933-10.612s5.5,2.214,5.039,7.1Z" transform="translate(-369.196 -200.253)"/><path class="z" d="M428.573,224.565l-7.321,5.7c.437,10.511-1.871,27.808-16.331,33.23-18.322,6.871-26.109-3.512-26.109-3.512l-5.972,3.512s5.362,10.918,25.593,12.063c20.406,1.154,32.141-9.62,36.417-27.638a70.681,70.681,0,0,0,2.209-18.886Z" transform="translate(-368.925 -204.109)"/><path class="ah" d="M424.3,210.3c-6.412-9.467-13.259,2.392-10.206,16.135a39.942,39.942,0,0,1,.756,6.621l15.806-1.231C430.354,223.572,428.565,216.592,424.3,210.3Z" transform="translate(-362.529 -206.898)"/></g><g transform="translate(60.175)"><path class="y" d="M416.116,203.128a12.444,12.444,0,0,0,9.9-9.071c2.28-8.135,2.21-16.039-4.079-17.194,0,0-1.059-4.639-5.617-3.435a4.109,4.109,0,0,0-4.527-2.994s-1.569-5.383-8.431-4.258-6.829,5.325-6.829,5.325-9.685-1.364-8.581,8.708c0,0-4.046,4.789.751,7.415,0,0,.009,7.718,8.905,6.977S416.116,203.128,416.116,203.128Z" transform="translate(-386.358 -166.021)"/><g transform="translate(7.851 19.391)"><path class="z" d="M407.944,207.84s4.484,2.093,7.544.139a44.961,44.961,0,0,0-.442-7.5s-3.154-3.645-2.862-6.441,5.615-5.314,3.478-8.538-5.08-2.506-6.845.94-6.043,2.923-6.594-.7-5.641-3.695-8.7-1.494c0,0,1.041,6.9-.381,10.187a8.083,8.083,0,0,0,2.271.316s.265,6.278,4.8,8.513c3.22,1.586,7.163.05,7.163.05Z" transform="translate(-393.138 -182.768)"/><path class="ar" d="M405.817,203.837c3.13-.544,4.031-5.007,4.031-5.007a15.275,15.275,0,0,1-4.419,1.946Z" transform="translate(-391.197 -180.232)"/><path class="as" d="M405.759,195.634a4.348,4.348,0,1,0-4.137,4.55A4.349,4.349,0,0,0,405.759,195.634Z" transform="translate(-392.518 -181.391)"/><path class="ab" d="M395.694,189.467s1.288-1.761,3.011-.844" transform="translate(-392.734 -181.886)"/><g transform="translate(17.555 2.164)"><path class="ab" d="M408.3,185.938a2.607,2.607,0,0,1,1.869-1.3c.6,0,1.256.5,1.85,1.4.477.718.284,1.339-.7,2.594" transform="translate(-408.299 -184.637)"/><path class="ab" d="M411.2,185.248a8.712,8.712,0,0,1-1.195,1.51" transform="translate(-408.029 -184.54)"/></g></g></g></g></g></g></svg>